<?xml version="1.0" encoding="utf-8"?>
<!-- Generator: Adobe Illustrator 16.0.0, SVG Export Plug-In . SVG Version: 6.00 Build 0)  -->
<!DOCTYPE svg PUBLIC "-//W3C//DTD SVG 1.1//EN" "http://www.w3.org/Graphics/SVG/1.1/DTD/svg11.dtd">
<svg version="1.1" xmlns="http://www.w3.org/2000/svg" xmlns:xlink="http://www.w3.org/1999/xlink" x="0px" y="0px" width="1000px"
	 height="1000px" viewBox="0 0 1000 1000" enable-background="new 0 0 1000 1000" xml:space="preserve">
<g id="Layer_1" display="none">
	<rect x="-20.596" y="-7.281" display="inline" fill="#4A101D" width="1083.146" height="1017.977"/>
</g>
<g id="Layer_2" display="none">
	<g display="inline">
		<polygon fill="#0B0B0B" points="520.978,314.132 629.274,501.707 737.57,689.281 520.978,689.281 304.385,689.281 
			412.682,501.707 		"/>
		<polygon fill="#0B0B0B" points="390.663,463.57 455.82,576.426 520.978,689.281 390.663,689.281 260.348,689.281 325.506,576.426 
					"/>
		<polygon fill="#0B0B0B" points="696.835,507.391 749.344,598.336 801.85,689.281 696.835,689.281 591.82,689.281 644.328,598.336 
			664.696,563.059 		"/>
	</g>
</g>
<g id="Layer_8" display="none">
	<circle display="inline" fill="#101010" fill-opacity="0.5" cx="520.978" cy="455.668" r="177.333"/>
</g>
<g id="Layer_9">
	<path fill="#4270B7" d="M353.617,514.444c12.405-20.093,24.811-40.185,37.216-60.278c6.551,12.364,16.21,23.442,22,36.167
		c36.048-63.388,72.096-126.776,108.144-190.164c48.041,83.705,96.081,167.409,144.122,251.114
		c70.967-110.939,9.68-248.917-122.415-271.061C414.696,258.768,311.851,396.303,353.617,514.444z"/>
</g>
<g id="Layer_5">
	<polygon fill="#101010" points="310.357,683.53 737.765,683.53 720.742,698.718 699.273,719.206 674.426,738.141 643.847,756.016 
		618.323,767.192 581.771,778.131 541.667,784.741 491,784.741 449,779.666 408.861,760.354 349.058,723.146 320.333,700.333 	"/>
</g>
<g id="Layer_4">
	<polygon fill="#101010" points="664.696,563.059 696.835,507.391 769.884,633.913 756.5,659 744.5,679 729.215,689.281 
		314.414,689.281 284.683,647.133 390.663,463.57 412.682,501.708 520.978,314.132 	"/>
	<polyline fill="#F7F7F7" points="486.894,373.167 520.978,392.248 555.178,373.283 520.978,314.047 486.894,373.167 	"/>
</g>
<g id="Layer_6">
	<polygon fill="#F7F7F7" points="520.978,314.132 496.217,357.02 520.978,370.75 	"/>
	<polygon fill="#F7F7F7" points="520.978,314.132 545.738,357.02 520.978,370.75 	"/>
</g>
<g id="Layer_7">
	<polygon fill="#F7F7F7" points="486.894,373.167 520.978,392.248 555.178,373.283 520.978,314.047 	"/>
</g>
<g id="Layer_3">
	<circle fill="none" stroke="#101010" stroke-width="12" stroke-miterlimit="10" cx="521.816" cy="511.707" r="273.034"/>
</g>
</svg>
